<svg width="5" height="5" viewBox="0 0 5 5" fill="none" xmlns="http://www.w3.org/2000/svg">
<path d="M3.06787 1.03493C3.30519 1.09862 3.52158 1.22361 3.69533 1.39736C3.86907 1.5711 3.99406 1.78749 4.05775 2.02481" stroke="#191C1F" stroke-width="0.23985" stroke-linecap="round" stroke-linejoin="round"/>
<path d="M2.92273 1.57533C3.06546 1.61324 3.19564 1.6882 3.30006 1.79263C3.40449 1.89705 3.47945 2.02723 3.51736 2.16996" stroke="#191C1F" stroke-width="0.23985" stroke-linecap="round" stroke-linejoin="round"/>
<path d="M1.89791 2.51798C2.04189 2.8153 2.2823 3.0551 2.57999 3.19831C2.60195 3.2087 2.62623 3.2132 2.65046 3.21136C2.67469 3.20952 2.69801 3.20141 2.71815 3.18781L3.15538 2.89574C3.17469 2.88264 3.19702 2.87465 3.22026 2.87251C3.2435 2.87037 3.26691 2.87415 3.28829 2.8835L4.10678 3.23503C4.13476 3.24668 4.15813 3.26719 4.1733 3.29342C4.18847 3.31965 4.19459 3.35014 4.19073 3.38019C4.16479 3.58267 4.06596 3.76876 3.91273 3.90364C3.75951 4.03851 3.56238 4.11294 3.35825 4.11298C2.72743 4.11298 2.12245 3.86239 1.67639 3.41633C1.23033 2.97028 0.979736 2.36529 0.979736 1.73447C0.979782 1.53034 1.05421 1.33321 1.18909 1.17999C1.32396 1.02676 1.51005 0.927932 1.71253 0.90199C1.74258 0.898129 1.77307 0.904255 1.7993 0.919424C1.82553 0.934593 1.84605 0.957964 1.85769 0.985937L2.20922 1.80618C2.21836 1.82722 2.22218 1.8502 2.22035 1.87307C2.21852 1.89594 2.2111 1.91802 2.19873 1.93734L1.90666 2.38157C1.89365 2.40166 1.88602 2.42475 1.88449 2.44863C1.88296 2.47252 1.88758 2.49639 1.89791 2.51798V2.51798Z" stroke="#191C1F" stroke-width="0.23985" stroke-linecap="round" stroke-linejoin="round"/>
</svg>
