<svg width="5" height="5" viewBox="0 0 5 5" fill="none" xmlns="http://www.w3.org/2000/svg">
<path d="M1.89791 2.518C2.04189 2.81531 2.2823 3.05511 2.57999 3.19832C2.60195 3.20872 2.62623 3.21322 2.65046 3.21138C2.67469 3.20954 2.69801 3.20142 2.71815 3.18783L3.15538 2.89576C3.17469 2.88266 3.19702 2.87466 3.22026 2.87252C3.2435 2.87038 3.26691 2.87416 3.28829 2.88352L4.10678 3.23505C4.13476 3.24669 4.15813 3.26721 4.1733 3.29344C4.18847 3.31967 4.19459 3.35015 4.19073 3.38021C4.16479 3.58269 4.06596 3.76877 3.91273 3.90365C3.75951 4.03853 3.56238 4.11295 3.35825 4.113C2.72743 4.113 2.12245 3.86241 1.67639 3.41635C1.23033 2.97029 0.979736 2.36531 0.979736 1.73449C0.979782 1.53035 1.05421 1.33323 1.18909 1.18C1.32396 1.02678 1.51005 0.927947 1.71253 0.902005C1.74258 0.898145 1.77307 0.904271 1.7993 0.919439C1.82553 0.934608 1.84605 0.957979 1.85769 0.985953L2.20922 1.80619C2.21836 1.82724 2.22218 1.85021 2.22035 1.87309C2.21852 1.89596 2.2111 1.91803 2.19873 1.93736L1.90666 2.38158C1.89365 2.40167 1.88602 2.42476 1.88449 2.44865C1.88296 2.47253 1.88758 2.49641 1.89791 2.518V2.518Z" stroke="#191C1F" stroke-width="0.23985" stroke-linecap="round" stroke-linejoin="round"/>
</svg>
