<svg width="156" height="16" viewBox="0 0 156 16" fill="none" xmlns="http://www.w3.org/2000/svg">
<path d="M5.03184 14.5024C11.0699 14.5024 14.3718 9.49713 14.3718 5.15672C14.3718 5.01457 14.3689 4.87308 14.3625 4.73216C15.005 4.26699 15.5595 3.69102 16 3.03127C15.4118 3.29293 14.7789 3.46904 14.1149 3.54844C14.7926 3.1418 15.3129 2.4985 15.5584 1.73168C14.914 2.11418 14.2091 2.38382 13.4739 2.52898C12.8749 1.89052 12.0221 1.4912 11.0778 1.4912C9.26494 1.4912 7.79489 2.96218 7.79489 4.77539C7.79489 5.03318 7.82374 5.28384 7.88006 5.52435C5.15177 5.38698 2.73252 4.07994 1.11343 2.09252C0.821818 2.59379 0.668434 3.16349 0.668943 3.74344C0.668943 4.88303 1.24846 5.88902 2.12976 6.47758C1.60846 6.46165 1.0986 6.32076 0.643057 6.06675C0.642569 6.08055 0.642569 6.09398 0.642569 6.10872C0.642569 7.69943 1.77408 9.02758 3.27613 9.32853C2.99402 9.40541 2.70292 9.44428 2.41054 9.44411C2.19938 9.44411 1.99359 9.42332 1.79359 9.3849C2.21151 10.69 3.42335 11.6397 4.86013 11.6663C3.73659 12.5474 2.32127 13.0722 0.783024 13.0722C0.521349 13.0725 0.259888 13.0573 0 13.0267C1.45281 13.9585 3.17789 14.5022 5.032 14.5022" fill="white"/>
<g clip-path="url(#clip0_2503_3524)">
<path fill-rule="evenodd" clip-rule="evenodd" d="M36 0C40.4183 0 44 3.58173 44 8C44 12.4183 40.4183 16 36 16C31.5817 16 28 12.4183 28 8C28 3.58173 31.5817 0 36 0Z" fill="white"/>
<path d="M37.0414 15.9328V9.75225H38.7849L39.016 7.57697H37.0414L37.0444 6.48815C37.0444 5.92079 37.0983 5.61693 37.9137 5.61693H39.0038V3.44128H37.2599C35.1652 3.44128 34.4281 4.49647 34.4281 6.27123V7.57714H33.1223V9.75261H34.4281V15.8452C34.9368 15.9465 35.4627 16 36.0011 16C36.349 16 36.6965 15.9776 37.0414 15.9328Z" fill="#1B6392"/>
</g>
<g clip-path="url(#clip1_2503_3524)">
<path d="M63.0242 0.0531119C60.3653 0.349929 57.7158 2.50107 57.6065 5.57391C57.5377 7.4501 58.0705 8.85764 59.856 9.25288C60.6309 7.88596 59.6061 7.58445 59.4468 6.59558C58.7922 2.54325 64.1208 -0.220272 66.9094 2.60886C68.8387 4.56785 67.5686 10.5948 64.4567 9.96836C61.476 9.37004 65.9158 4.57254 63.5366 3.63054C61.6026 2.86506 60.5747 5.97227 61.4917 7.51572C60.9543 10.1699 59.7967 12.671 60.2653 16C61.7854 14.8971 62.2978 12.785 62.718 10.5823C63.4819 11.0463 63.8896 11.529 64.8644 11.604C68.4591 11.8821 70.4665 8.01562 69.976 4.44913C69.5401 1.28725 66.3845 -0.321815 63.0242 0.0531119Z" fill="white"/>
</g>
<g clip-path="url(#clip2_2503_3524)">
<path d="M92 16C96.4183 16 100 12.4183 100 8C100 3.58172 96.4183 0 92 0C87.5817 0 84 3.58172 84 8C84 12.4183 87.5817 16 92 16Z" fill="white"/>
<path d="M97.3361 8.00005C97.3377 8.10965 97.3241 8.21905 97.2953 8.32485C97.2665 8.43066 97.2229 8.53206 97.1657 8.62566C97.1087 8.71926 97.0387 8.80446 96.9579 8.87866C96.8771 8.95286 96.7863 9.01526 96.6881 9.06406C96.6903 9.09326 96.6921 9.12266 96.6931 9.15206C96.6955 9.21071 96.6955 9.26942 96.6931 9.32806C96.6921 9.35746 96.6903 9.38686 96.6881 9.41607C96.6881 11.2081 94.6001 12.6641 92.024 12.6641C89.448 12.6641 87.36 11.2081 87.36 9.41607C87.3578 9.38686 87.356 9.35746 87.355 9.32806C87.3526 9.26942 87.3526 9.21071 87.355 9.15206C87.356 9.12266 87.3578 9.09326 87.36 9.06406C87.2062 8.99334 87.0695 8.89004 86.9595 8.7613C86.8495 8.63256 86.7688 8.48146 86.723 8.31845C86.6772 8.15538 86.6675 7.9843 86.6944 7.81708C86.7214 7.64986 86.7843 7.4905 86.879 7.35004C86.9736 7.20961 87.0976 7.09143 87.2424 7.00371C87.3872 6.91598 87.5493 6.86082 87.7176 6.84204C87.8859 6.82318 88.0563 6.84113 88.2169 6.89466C88.3776 6.94819 88.5247 7.03601 88.648 7.15204C88.877 6.99685 89.1169 6.85842 89.3658 6.73784C89.6148 6.61744 89.8722 6.51504 90.136 6.43183C90.3998 6.34863 90.6694 6.28483 90.9424 6.24063C91.2154 6.19643 91.4914 6.17223 91.768 6.16803L92.36 3.392C92.3666 3.3598 92.3796 3.3294 92.3982 3.3022C92.4166 3.2752 92.4404 3.252 92.4678 3.2342C92.4954 3.2164 92.5262 3.2042 92.5586 3.1982C92.5908 3.1924 92.624 3.193 92.6561 3.2L94.6161 3.59201C94.8139 3.2522 95.2291 3.1066 95.5957 3.2482C95.9623 3.3898 96.1719 3.77681 96.0899 4.16121C96.0081 4.54562 95.6589 4.81362 95.2665 4.79342C94.8739 4.77322 94.5541 4.47081 94.5121 4.08001L92.8001 3.72001L92.28 6.21603C92.5532 6.22183 92.8259 6.24743 93.0955 6.29243C93.6353 6.38243 94.1594 6.54989 94.6515 6.78964C94.8972 6.90924 95.134 7.0464 95.3601 7.20004C95.5226 7.044 95.7268 6.93835 95.9481 6.89584C96.1693 6.85318 96.3982 6.87548 96.6071 6.96004C96.816 7.04456 96.9959 7.18772 97.1253 7.37224C97.2547 7.55678 97.3279 7.77482 97.3361 8.00005ZM89.3968 9.10626C89.4372 9.20326 89.496 9.29146 89.5704 9.36566C89.6446 9.44007 89.7328 9.49887 89.8298 9.53927C89.9269 9.57942 90.031 9.60008 90.136 9.60007C90.4596 9.60007 90.7512 9.40507 90.8752 9.10626C90.999 8.80726 90.9304 8.46326 90.7016 8.23445C90.4728 8.00565 90.1288 7.93705 89.8298 8.06085C89.531 8.18485 89.336 8.47646 89.336 8.80006C89.336 8.90506 89.3566 9.00906 89.3968 9.10626ZM93.9789 11.0267C94.0199 10.9867 94.0433 10.9321 94.0441 10.8749C94.0449 10.8175 94.0227 10.7623 93.9827 10.7213C93.9427 10.6803 93.8881 10.6569 93.8309 10.6561C93.7735 10.6553 93.7183 10.6775 93.6721 10.7121C93.5518 10.7984 93.4244 10.8743 93.2913 10.9391C93.1581 11.0039 93.0198 11.0574 92.8777 11.0989C92.7357 11.1403 92.5903 11.1697 92.4432 11.1867C92.296 11.2037 92.1478 11.2081 92 11.2001C91.8524 11.2067 91.7044 11.2007 91.5578 11.1823C91.4112 11.1641 91.2664 11.1333 91.125 11.0903C90.9834 11.0475 90.846 10.9927 90.7138 10.9267C90.5816 10.8607 90.4552 10.7835 90.336 10.6961C90.2946 10.6621 90.242 10.6447 90.1884 10.6473C90.1348 10.6499 90.0842 10.6725 90.0462 10.7103C90.0084 10.7483 89.9858 10.7989 89.9832 10.8525C89.9806 10.9061 89.998 10.9587 90.032 11.0001C90.1726 11.1061 90.322 11.1997 90.4786 11.2801C90.6352 11.3605 90.7986 11.4271 90.9666 11.4795C91.1346 11.5319 91.3068 11.5697 91.4814 11.5927C91.656 11.6155 91.8322 11.6233 92.008 11.6161C92.1838 11.6233 92.36 11.6155 92.5346 11.5927C92.8844 11.5467 93.2236 11.441 93.5375 11.2801C93.6941 11.1997 93.8435 11.1061 93.9841 11.0001L93.9789 11.0267ZM93.8321 9.66407C93.9405 9.66527 94.0481 9.64427 94.1483 9.60267C94.2485 9.56087 94.3391 9.49927 94.4147 9.42147C94.4903 9.34366 94.5491 9.25126 94.5879 9.14986C94.6267 9.04858 94.6445 8.94044 94.6401 8.83206C94.6401 8.50846 94.4451 8.21685 94.1463 8.09285C93.8473 7.96905 93.5033 8.03765 93.2745 8.26645C93.0457 8.49526 92.9771 8.83926 93.1009 9.13826C93.2249 9.43707 93.5165 9.63207 93.8401 9.63207L93.8321 9.66407Z" fill="#1B6392"/>
</g>
<path d="M120.354 13.5023L117.077 13.4424C116.015 13.4215 114.952 13.4632 113.911 13.2469C112.329 12.9237 112.217 11.339 112.099 10.0098C111.938 8.14102 112 6.23835 112.305 4.38519C112.478 3.34538 113.155 2.72491 114.203 2.6574C117.741 2.41236 121.303 2.4414 124.833 2.55572C125.206 2.5662 125.581 2.62348 125.949 2.68867C127.764 3.00667 127.808 4.80246 127.926 6.31418C128.043 7.84151 127.993 9.37667 127.769 10.8936C127.589 12.1496 127.245 13.2028 125.793 13.3045C123.973 13.4374 122.195 13.5445 120.37 13.5104C120.37 13.5023 120.359 13.5023 120.354 13.5023ZM118.427 10.3226C119.799 9.53539 121.144 8.76132 122.508 7.97942C121.134 7.19224 119.791 6.41818 118.427 5.63628V10.3226Z" fill="white"/>
<g clip-path="url(#clip3_2503_3524)">
<path d="M145.601 8C145.601 6.67457 146.675 5.59981 148 5.59981C149.326 5.59981 150.401 6.67457 150.401 8C150.401 9.32544 149.326 10.4002 148 10.4002C146.675 10.4002 145.601 9.32544 145.601 8ZM144.303 8C144.303 10.0419 145.958 11.6971 148 11.6971C150.042 11.6971 151.698 10.0419 151.698 8C151.698 5.95808 150.042 4.30289 148 4.30289C145.958 4.30289 144.303 5.95797 144.303 8H144.303ZM150.98 4.1563C150.98 4.32718 151.031 4.49425 151.125 4.63637C151.22 4.77849 151.355 4.88929 151.513 4.95474C151.671 5.0202 151.845 5.03738 152.012 5.00411C152.18 4.97084 152.334 4.88861 152.455 4.76783C152.576 4.64704 152.658 4.49313 152.691 4.32554C152.725 4.15795 152.708 3.98423 152.642 3.82632C152.577 3.66842 152.466 3.53344 152.324 3.43845C152.182 3.34345 152.015 3.29271 151.844 3.29264H151.844C151.615 3.29275 151.395 3.38376 151.233 3.5457C151.071 3.70763 150.98 3.92724 150.98 4.1563ZM145.091 13.8607C144.389 13.8287 144.008 13.7118 143.754 13.613C143.418 13.4821 143.178 13.3263 142.926 13.0744C142.674 12.8226 142.518 12.583 142.388 12.2469C142.289 11.9934 142.172 11.6118 142.14 10.9098C142.105 10.1508 142.098 9.92286 142.098 8.00012C142.098 6.07737 142.105 5.85003 142.14 5.09045C142.172 4.38848 142.29 4.00757 142.388 3.75339C142.518 3.41723 142.674 3.17739 142.926 2.92521C143.178 2.67304 143.418 2.51694 143.754 2.38665C144.008 2.28781 144.389 2.17088 145.091 2.13897C145.85 2.10407 146.078 2.0971 148 2.0971C149.922 2.0971 150.151 2.10453 150.91 2.13909C151.612 2.17106 151.993 2.28885 152.247 2.38677C152.583 2.51706 152.823 2.6735 153.075 2.92533C153.328 3.17716 153.483 3.41735 153.614 3.7535C153.713 4.00694 153.83 4.3886 153.862 5.09057C153.897 5.85014 153.904 6.07749 153.904 8.00023C153.904 9.92298 153.897 10.1503 153.862 10.9099C153.83 11.6119 153.712 11.9934 153.614 12.247C153.483 12.5831 153.327 12.823 153.075 13.0746C152.824 13.3262 152.583 13.4823 152.247 13.6131C151.994 13.712 151.612 13.8289 150.91 13.8608C150.151 13.8957 149.923 13.9027 148 13.9027C146.078 13.9027 145.85 13.8957 145.091 13.8608V13.8607ZM145.032 0.843606C144.265 0.878512 143.742 1.00005 143.284 1.17803C142.811 1.36183 142.409 1.60842 142.009 2.00851C141.608 2.4086 141.362 2.80996 141.178 3.28395C141 3.74164 140.879 4.2651 140.844 5.03159C140.808 5.79928 140.8 6.04471 140.8 8C140.8 9.95529 140.808 10.2007 140.844 10.9684C140.879 11.735 141 12.2584 141.178 12.7161C141.362 13.1895 141.608 13.5916 142.009 13.9915C142.409 14.3914 142.81 14.6377 143.284 14.822C143.742 15 144.265 15.1215 145.032 15.1564C145.8 15.1913 146.045 15.2 148 15.2C149.956 15.2 150.201 15.1919 150.969 15.1564C151.735 15.1215 152.259 15 152.717 14.822C153.19 14.6377 153.591 14.3916 153.992 13.9915C154.393 13.5914 154.638 13.1895 154.823 12.7161C155.001 12.2584 155.123 11.7349 155.157 10.9684C155.192 10.2002 155.2 9.95529 155.2 8C155.2 6.04471 155.192 5.79928 155.157 5.03159C155.122 4.26505 155.001 3.74135 154.823 3.28395C154.638 2.81053 154.392 2.40923 153.992 2.00851C153.592 1.60779 153.19 1.36183 152.717 1.17803C152.259 1.00005 151.735 0.877936 150.969 0.843606C150.202 0.808528 149.956 0.800003 148.001 0.800003C146.046 0.800003 145.8 0.808125 145.032 0.843606" fill="white"/>
</g>
<defs>
<clipPath id="clip0_2503_3524">
<rect width="16" height="16" fill="white" transform="translate(28)"/>
</clipPath>
<clipPath id="clip1_2503_3524">
<rect width="16" height="16" fill="white" transform="translate(56)"/>
</clipPath>
<clipPath id="clip2_2503_3524">
<rect width="16" height="16" fill="white" transform="translate(84)"/>
</clipPath>
<clipPath id="clip3_2503_3524">
<rect width="16" height="16" fill="white" transform="translate(140)"/>
</clipPath>
</defs>
</svg>
