<svg width="193" height="48" viewBox="0 0 193 48" fill="none" xmlns="http://www.w3.org/2000/svg">
<path fill-rule="evenodd" clip-rule="evenodd" d="M48 24C48 37.2548 37.2548 48 24 48C10.7452 48 0 37.2548 0 24C0 10.7452 10.7452 0 24 0C37.2548 0 48 10.7452 48 24ZM36 24C36 30.6274 30.6274 36 24 36C17.3726 36 12 30.6274 12 24C12 17.3726 17.3726 12 24 12C30.6274 12 36 17.3726 36 24ZM24 32C28.4183 32 32 28.4183 32 24C32 19.5817 28.4183 16 24 16C19.5817 16 16 19.5817 16 24C16 28.4183 19.5817 32 24 32Z" fill="white"/>
<path d="M56.88 36L65.152 12.864H70.096L78.368 36H73.712L71.824 30.64H63.488L61.568 36H56.88ZM64.544 26.56H70.688L67.632 17.36L64.544 26.56ZM80.61 41.152V19.456H85.298L85.314 21.84C85.5593 21.4453 85.858 21.088 86.21 20.768C86.5727 20.4373 86.9727 20.1493 87.41 19.904C87.8473 19.6587 88.322 19.472 88.834 19.344C89.346 19.2053 89.8847 19.136 90.45 19.136C91.6767 19.136 92.77 19.44 93.73 20.048C94.69 20.6453 95.442 21.5733 95.986 22.832C96.5407 24.08 96.818 25.6693 96.818 27.6C96.818 29.6053 96.5193 31.2533 95.922 32.544C95.3353 33.824 94.5247 34.7733 93.49 35.392C92.4553 36.0107 91.2873 36.32 89.986 36.32C89.4527 36.32 88.9513 36.2453 88.482 36.096C88.0127 35.9573 87.5753 35.76 87.17 35.504C86.7753 35.248 86.418 34.9547 86.098 34.624C85.7887 34.2827 85.5167 33.9147 85.282 33.52V41.152H80.61ZM88.866 32.896C89.8793 32.896 90.7273 32.4747 91.41 31.632C92.1033 30.7893 92.45 29.456 92.45 27.632C92.45 26.032 92.1193 24.784 91.458 23.888C90.8073 22.9813 89.9433 22.528 88.866 22.528C87.6607 22.528 86.7593 23.0187 86.162 24C85.5753 24.9707 85.282 26.1813 85.282 27.632C85.282 28.56 85.41 29.424 85.666 30.224C85.9327 31.024 86.3273 31.6693 86.85 32.16C87.3833 32.6507 88.0553 32.896 88.866 32.896ZM99.4075 41.152V19.456H104.096L104.112 21.84C104.357 21.4453 104.656 21.088 105.008 20.768C105.37 20.4373 105.77 20.1493 106.208 19.904C106.645 19.6587 107.12 19.472 107.632 19.344C108.144 19.2053 108.682 19.136 109.248 19.136C110.474 19.136 111.568 19.44 112.528 20.048C113.488 20.6453 114.24 21.5733 114.784 22.832C115.338 24.08 115.616 25.6693 115.616 27.6C115.616 29.6053 115.317 31.2533 114.72 32.544C114.133 33.824 113.322 34.7733 112.288 35.392C111.253 36.0107 110.085 36.32 108.784 36.32C108.25 36.32 107.749 36.2453 107.28 36.096C106.81 35.9573 106.373 35.76 105.968 35.504C105.573 35.248 105.216 34.9547 104.896 34.624C104.586 34.2827 104.314 33.9147 104.08 33.52V41.152H99.4075ZM107.664 32.896C108.677 32.896 109.525 32.4747 110.208 31.632C110.901 30.7893 111.248 29.456 111.248 27.632C111.248 26.032 110.917 24.784 110.256 23.888C109.605 22.9813 108.741 22.528 107.664 22.528C106.458 22.528 105.557 23.0187 104.96 24C104.373 24.9707 104.08 26.1813 104.08 27.632C104.08 28.56 104.208 29.424 104.464 30.224C104.73 31.024 105.125 31.6693 105.648 32.16C106.181 32.6507 106.853 32.896 107.664 32.896ZM120.36 41.28C119.229 41.28 118.429 41.184 117.96 40.992C117.49 40.8107 117.256 40.72 117.256 40.72V37.744L118.904 37.808C119.618 37.8507 120.194 37.8133 120.632 37.696C121.069 37.5893 121.4 37.4453 121.624 37.264C121.848 37.0827 122.008 36.8907 122.104 36.688C122.21 36.496 122.285 36.3413 122.328 36.224L122.632 35.312L116.2 19.456H120.824L124.792 30.24L128.792 19.456H133.368L126.664 36.096C126.088 37.504 125.474 38.5813 124.824 39.328C124.184 40.0747 123.49 40.5867 122.744 40.864C122.008 41.1413 121.213 41.28 120.36 41.28ZM145.175 36.32C143.02 36.32 141.159 35.8187 139.591 34.816C138.023 33.8133 136.812 32.4053 135.959 30.592C135.116 28.7787 134.695 26.6613 134.695 24.24C134.695 21.808 135.116 19.7227 135.959 17.984C136.801 16.2347 138.007 14.8907 139.575 13.952C141.143 13.0133 143.009 12.544 145.175 12.544C146.913 12.544 148.46 12.896 149.815 13.6C151.18 14.2933 152.279 15.2427 153.111 16.448C153.953 17.6533 154.449 19.0133 154.599 20.528H149.703C149.553 19.728 149.281 19.0187 148.887 18.4C148.492 17.7707 147.975 17.28 147.335 16.928C146.695 16.5653 145.927 16.384 145.031 16.384C143.953 16.384 143.025 16.6453 142.247 17.168C141.468 17.6907 140.871 18.5333 140.455 19.696C140.039 20.8587 139.831 22.3947 139.831 24.304C139.831 27.184 140.289 29.2693 141.207 30.56C142.135 31.84 143.409 32.48 145.031 32.48C145.927 32.48 146.695 32.2773 147.335 31.872C147.975 31.456 148.492 30.912 148.887 30.24C149.281 29.5573 149.553 28.8107 149.703 28H154.599C154.46 29.0987 154.193 30.1493 153.799 31.152C153.404 32.144 152.844 33.0293 152.119 33.808C151.393 34.5867 150.46 35.2 149.319 35.648C148.177 36.096 146.796 36.32 145.175 36.32ZM164.766 36.32C163.145 36.32 161.731 35.9733 160.526 35.28C159.331 34.5867 158.403 33.6053 157.742 32.336C157.091 31.0667 156.766 29.5627 156.766 27.824C156.766 26.0853 157.091 24.5653 157.742 23.264C158.403 21.9627 159.331 20.9493 160.526 20.224C161.731 19.4987 163.15 19.136 164.782 19.136C166.414 19.136 167.827 19.4933 169.022 20.208C170.217 20.912 171.139 21.9147 171.79 23.216C172.441 24.5173 172.766 26.0533 172.766 27.824C172.766 29.488 172.446 30.96 171.806 32.24C171.177 33.5093 170.265 34.5067 169.07 35.232C167.886 35.9573 166.451 36.32 164.766 36.32ZM164.782 32.848C165.603 32.848 166.265 32.608 166.766 32.128C167.267 31.648 167.63 31.0187 167.854 30.24C168.078 29.4507 168.19 28.592 168.19 27.664C168.19 26.7893 168.089 25.9627 167.886 25.184C167.683 24.4053 167.331 23.776 166.83 23.296C166.329 22.816 165.646 22.576 164.782 22.576C163.961 22.576 163.294 22.8053 162.782 23.264C162.281 23.712 161.913 24.3253 161.678 25.104C161.443 25.872 161.326 26.7253 161.326 27.664C161.326 28.528 161.433 29.36 161.646 30.16C161.859 30.9493 162.217 31.5947 162.718 32.096C163.219 32.5973 163.907 32.848 164.782 32.848ZM175.316 36V19.456H179.908V21.792C180.164 21.3867 180.495 20.9973 180.9 20.624C181.316 20.24 181.839 19.9253 182.468 19.68C183.098 19.4347 183.844 19.312 184.708 19.312C185.722 19.312 186.666 19.5093 187.54 19.904C188.426 20.2987 189.14 20.9227 189.684 21.776C190.228 22.6187 190.5 23.7227 190.5 25.088V36H185.828V25.664C185.828 24.768 185.562 24.096 185.028 23.648C184.495 23.2 183.844 22.976 183.076 22.976C182.564 22.976 182.068 23.0667 181.588 23.248C181.119 23.4293 180.735 23.7013 180.436 24.064C180.138 24.4267 179.988 24.8747 179.988 25.408V36H175.316Z" fill="white"/>
</svg>
